<?xml version="1.0" encoding="utf-8"?>
<!-- Generator: Adobe Illustrator 16.0.0, SVG Export Plug-In . SVG Version: 6.00 Build 0)  -->
<!DOCTYPE svg PUBLIC "-//W3C//DTD SVG 1.1//EN" "http://www.w3.org/Graphics/SVG/1.1/DTD/svg11.dtd">
<svg version="1.1" id="Capa_1" xmlns="http://www.w3.org/2000/svg" xmlns:xlink="http://www.w3.org/1999/xlink" x="0px" y="0px"
	 width="595.28px" height="841.89px" viewBox="0 0 595.28 841.89" enable-background="new 0 0 595.28 841.89" xml:space="preserve">
<text transform="matrix(1 0 0 1 132.6782 510.7363)" fill="#FFFFFF" font-family="'Tahoma-Bold'" font-size="47">CARTELERA</text>
<path fill-rule="evenodd" clip-rule="evenodd" fill="#FFFFFF" d="M252.964,337.565c3.358,0.602,6.717,1.204,9.58,1.717
	c1.028-3.487,1.444-7.06,3.078-9.943c2.634-4.65,7.993-5.902,13.598-4.427c1.408,0.371,3.777,0.195,4.568-0.716
	c3.938-4.538,8.573-6.398,14.231-4.236c5.957,2.277,8.029,7.08,7.492,13.216c-0.041,0.475,0.117,0.966,0.286,2.215
	c5.692-2.723,11.388-4.009,15.847-0.526c4.092-3.053,7.4-6.25,11.336-8.151c1.969-0.952,5.316-0.089,7.626,0.911
	c6.04,2.616,7.319,7.594,5.128,18.69c2.054-0.767,3.787-1.508,5.578-2.065c8.3-2.581,16.186,3.715,15.516,12.261
	c-0.203,2.592-1.119,4.109-3.962,3.779c-0.164-0.019-0.333,0.001-0.499,0.001c-62.622-0.003-125.244-0.005-187.866-0.024
	c-0.811,0-1.622-0.209-2.69-0.356c0.436-7.125,5.001-10.149,11.297-11.868c-0.743-9.478,3.723-14.792,13.022-15.67
	c2.326-9.55,5.896-13.225,12.639-13.23c6.897-0.006,10.154,3.483,12.561,13.641c2.541,0.123,5.151,0.25,6.293,0.306
	c3.043-4.633,5.048-8.987,8.269-12.071c1.758-1.684,5.673-1.95,8.445-1.58C251.682,320.42,254.279,326.266,252.964,337.565z"/>
<path fill-rule="evenodd" clip-rule="evenodd" fill="#FFFFFF" d="M250.166,364.149c10.774,0,20.83,0,31.676,0
	c-1.59,32.17-3.177,64.257-4.771,96.505c-7.385,0-14.277,0-22.1,0C253.376,428.623,251.779,396.541,250.166,364.149z"/>
<path fill-rule="evenodd" clip-rule="evenodd" fill="#FFFFFF" d="M187.408,364.176c10.831,0,21.04,0,31.669,0
	c4.777,32.176,9.534,64.22,14.321,96.46c-7.383,0-14.448,0-22.116,0C203.356,428.611,195.422,396.554,187.408,364.176z"/>
<path fill-rule="evenodd" clip-rule="evenodd" fill="#FFFFFF" d="M298.621,460.658c4.799-32.309,9.557-64.345,14.328-96.478
	c10.725,0,20.933,0,31.66,0c-7.973,32.231-15.901,64.283-23.865,96.478C313.361,460.658,306.318,460.658,298.621,460.658z"/>
</svg>
