<?xml version="1.0" encoding="utf-8"?>
<!-- Generator: Adobe Illustrator 16.0.0, SVG Export Plug-In . SVG Version: 6.00 Build 0)  -->
<!DOCTYPE svg PUBLIC "-//W3C//DTD SVG 1.1//EN" "http://www.w3.org/Graphics/SVG/1.1/DTD/svg11.dtd">
<svg version="1.1" id="Capa_1" xmlns="http://www.w3.org/2000/svg" xmlns:xlink="http://www.w3.org/1999/xlink" x="0px" y="0px"
	 width="595.28px" height="841.89px" viewBox="0 0 595.28 841.89" enable-background="new 0 0 595.28 841.89" xml:space="preserve">
<path fill-rule="evenodd" clip-rule="evenodd" d="M258.958,357.589c-1.365-3.798-4.217-1.963-6.757-2.53
	c0.514-0.885,0.781-1.917,1.445-2.382c2.169-1.519,4.154-3.502,7.192-3.229c1.413,0.127,2.505-0.461,3.207-1.914
	c3.031-6.271,5.994-12.561,8.194-19.189c1.397-4.206,2.956-8.359,4.435-12.538c0.09-0.255,0.12-0.531,0.217-0.981
	c-4.164,0.408-8.094,0.28-11.087-3.999c3.421-0.354,6.521-0.676,9.622-0.997c-2.435-1.405-5.567,0.234-8.08-2.445
	c1.729-0.739,3.209-1.372,4.689-2.004c-0.012-0.107-0.025-0.214-0.037-0.321c-0.665,0.047-1.34,0.193-1.992,0.123
	c-2.213-0.238-4.434-0.467-6.615-0.887c-0.705-0.135-1.437-0.74-1.901-1.33c-0.449-0.572-0.568-1.402-0.833-2.119
	c0.686-0.18,1.37-0.503,2.059-0.516c3.836-0.071,7.477-0.664,9.845-4.095c0.94-1.363,1.574-2.956,2.229-4.494
	c0.432-1.013,0.654-2.116,1.036-3.4c-1.396-0.859-2.9-1.784-4.644-2.855c1.792-1.169,3.439-2.033,4.827-3.206
	c1.467-1.24,3.077-2.567,3.943-4.215c2.734-5.196,7.697-6.408,12.639-6.677c3.759-0.204,7.138,1.935,8.776,5.774
	c0.314,0.738,0.55,1.772,0.275,2.448c-0.794,1.961-0.291,3.941-0.404,5.902c-0.25,4.358-0.183,8.785-3.039,12.486
	c-0.295,0.382-0.954,0.678-1.443,0.676c-0.884-0.004-1.768-0.262-3.285-0.523c0.996,1.521,1.582,2.841,2.539,3.783
	c1.555,1.53,3.336,2.834,5.054,4.193c1.994,1.579,3.577,3.45,4.064,6.003c0.145,0.755,0.109,1.754-0.28,2.361
	c-0.987,1.538-2.052,3.104-3.391,4.324c-3.422,3.116-4.307,6.824-3.176,11.175c0.534,2.052,1.531,2.407,3.337,1.368
	c6.483-3.727,13.32-6.695,20.317-9.304c0.825-0.308,1.745-0.356,2.586-0.63c3.547-1.156,5.396-0.548,7.333,2.661
	c1.32,2.188,2.507,4.458,3.729,6.706c2.615,4.813,5.308,9.589,7.776,14.477c1.082,2.141,2.921,3.058,4.914,3.405
	c4.741,0.825,9.495,0.894,13.979-1.369c1.778-0.897,3.587-1.736,5.355-2.652c1.183-0.613,1.752-0.376,1.892,1.01
	c0.183,1.807-0.863,3.247-2.898,4.54c-1.637,1.04-3.277,2.249-4.486,3.733c-1.06,1.299-2.056,1.447-3.506,1.209
	c-2.465-0.404-4.947-0.783-7.437-0.94c-5.109-0.322-10.253-0.267-15.335-0.811c-2.805-0.3-5.597-1.29-8.235-2.36
	c-2.002-0.812-3.88-0.552-5.711-0.072c-6.241,1.637-12.423,3.504-18.652,5.189c-1.924,0.521-3.925,0.771-5.899,1.086
	c-3.367,0.539-6.018-0.869-8.259-3.212c-3.04-3.178-5.215-6.788-4.136-11.374c1.001-4.255,2.381-8.421,3.557-12.637
	c0.202-0.725,0.393-1.529,0.285-2.251c-0.315-2.109-0.686-4.221-1.237-6.278c-0.245-0.915-0.976-1.699-1.669-2.844
	c-0.55,0.813-0.94,1.267-1.197,1.787c-3.681,7.457-7.207,14.995-11.065,22.358c-2.157,4.119-4.828,7.971-7.33,11.904
	c-0.892,1.401-2.42,1.384-3.821,1.152C261.081,355.614,259.898,355.596,258.958,357.589z M332.613,343.362
	c-2.676-4.332-5.23-8.465-7.84-12.688c-3.533,2.391-6.574,5.809-9.647,9.281C321.271,339.54,326.928,340.836,332.613,343.362z"/>
<text transform="matrix(1 0 0 1 190.7144 395.0005)" stroke="#FFFFFF" stroke-miterlimit="10" font-family="'MyriadPro-Regular'" font-size="56">CINE BARS</text>
<path fill-rule="evenodd" clip-rule="evenodd" fill="#FCC414" d="M317.563,433.73c-2.61-1.644-5.023-3.124-7.389-4.68
	c-0.657-0.432-1.104-0.425-1.759,0.005c-2.365,1.555-4.777,3.034-7.319,4.637c0.132-1.566,0.642-2.866,0.935-4.209
	c0.304-1.402,0.631-2.806,1.068-4.169c0.277-0.861,0.009-1.353-0.636-1.873c-1.88-1.519-3.723-3.084-5.576-4.638
	c-0.288-0.241-0.64-0.427-0.853-0.91c1.324-0.098,2.6-0.2,3.876-0.284c1.607-0.105,3.218-0.222,4.828-0.281
	c0.65-0.024,0.98-0.271,1.219-0.888c1.048-2.702,2.15-5.383,3.332-8.316c0.436,1.06,0.791,1.908,1.135,2.762
	c0.734,1.817,1.502,3.621,2.173,5.463c0.26,0.713,0.651,0.95,1.37,0.987c2.826,0.148,5.651,0.346,8.81,0.546
	c-1.358,1.148-2.503,2.12-3.652,3.087c-1.02,0.855-2.019,1.74-3.079,2.544c-0.667,0.504-0.762,1.018-0.545,1.806
	c0.684,2.498,1.281,5.02,1.908,7.533C317.459,433.049,317.48,433.255,317.563,433.73z"/>
<path fill-rule="evenodd" clip-rule="evenodd" fill="#FCC313" d="M238.563,433.769c0.746-2.992,1.375-5.719,2.125-8.413
	c0.25-0.898,0.036-1.385-0.661-1.941c-2.025-1.616-3.986-3.313-5.971-4.98c-0.152-0.128-0.294-0.267-0.593-0.54
	c2.755-0.186,5.323-0.457,7.894-0.492c1.404-0.02,2.1-0.455,2.564-1.815c0.834-2.445,1.903-4.812,2.976-7.463
	c0.717,1.777,1.35,3.344,1.98,4.911c0.418,1.038,0.903,2.057,1.229,3.124c0.274,0.899,0.797,1.158,1.681,1.198
	c2.761,0.125,5.518,0.329,8.543,0.519c-0.505,0.458-0.856,0.8-1.231,1.113c-1.8,1.509-3.577,3.046-5.425,4.492
	c-0.691,0.541-0.823,1.044-0.6,1.861c0.742,2.725,1.41,5.469,2.163,8.426c-2.614-1.636-5.056-3.121-7.445-4.687
	c-0.655-0.429-1.107-0.453-1.766-0.023C243.626,430.622,241.184,432.122,238.563,433.769z"/>
<path fill-rule="evenodd" clip-rule="evenodd" fill="#FCC313" d="M379.83,433.574c-2.468-1.531-4.946-3.047-7.397-4.604
	c-0.554-0.351-0.952-0.325-1.501,0.03c-2.438,1.577-4.91,3.102-7.562,4.766c0.711-2.829,1.322-5.475,2.058-8.084
	c0.29-1.031,0.208-1.681-0.713-2.39c-2.16-1.663-4.205-3.477-6.484-5.388c1.457-0.107,2.691-0.207,3.927-0.287
	c1.645-0.106,3.289-0.215,4.935-0.287c0.676-0.028,1.05-0.281,1.303-0.95c0.904-2.39,1.88-4.753,2.838-7.123
	c0.127-0.314,0.163-0.69,0.56-0.922c1.063,2.643,2.15,5.26,3.159,7.907c0.295,0.775,0.708,1.069,1.528,1.108
	c2.821,0.131,5.639,0.339,8.716,0.535c-1.925,1.616-3.554,3.218-5.413,4.481c-1.773,1.206-2.284,2.465-1.511,4.507
	c0.666,1.757,0.962,3.652,1.423,5.486c0.102,0.403,0.273,0.799,0.125,1.227L379.83,433.574z"/>
<path fill-rule="evenodd" clip-rule="evenodd" fill="#FCC313" d="M264.586,417.883c3.121-0.197,5.941-0.401,8.766-0.534
	c0.771-0.036,1.178-0.292,1.46-1.026c1.023-2.664,2.113-5.302,3.279-8.202c0.987,2.438,1.998,4.594,2.726,6.842
	c0.572,1.767,1.403,2.564,3.393,2.486c2.352-0.092,4.722,0.268,7.349,0.45c-1.241,1.05-2.292,1.945-3.351,2.832
	c-1.208,1.015-2.408,2.036-3.641,3.02c-0.414,0.329-0.509,0.615-0.369,1.147c0.747,2.838,1.434,5.69,2.177,8.678
	c-1.005-0.33-1.715-0.938-2.489-1.408c-1.676-1.02-3.34-2.063-4.97-3.153c-0.572-0.384-0.971-0.422-1.572-0.028
	c-2.167,1.422-4.38,2.771-6.578,4.146c-0.258,0.161-0.525,0.308-0.98,0.573c0.586-2.361,0.942-4.589,1.71-6.663
	c0.786-2.12,0.348-3.45-1.519-4.708C268.134,421.091,266.521,419.504,264.586,417.883z"/>
<path fill-rule="evenodd" clip-rule="evenodd" fill="#FCC313" d="M332.172,433.759c0.781-3.128,1.461-5.947,2.207-8.748
	c0.16-0.604,0.056-0.937-0.422-1.323c-2.011-1.637-3.992-3.311-5.973-4.986c-0.25-0.212-0.618-0.339-0.709-0.818
	c1.264-0.091,2.506-0.188,3.749-0.268c1.645-0.104,3.288-0.22,4.935-0.277c0.664-0.024,0.972-0.311,1.205-0.914
	c0.938-2.416,1.924-4.813,2.903-7.212c0.114-0.28,0.126-0.629,0.534-0.858c1.029,2.566,2.1,5.099,3.048,7.674
	c0.361,0.981,0.885,1.308,1.907,1.343c2.721,0.097,5.437,0.322,8.422,0.514c-1.32,1.121-2.472,2.105-3.631,3.08
	c-1.047,0.88-2.077,1.78-3.164,2.607c-0.598,0.454-0.713,0.914-0.522,1.622c0.673,2.503,1.285,5.021,1.915,7.534
	c0.065,0.261,0.099,0.531,0.179,0.978c-2.542-1.589-4.962-3.051-7.319-4.606c-0.732-0.482-1.223-0.439-1.929,0.024
	C337.172,430.66,334.784,432.116,332.172,433.759z"/>
<polygon fill-rule="evenodd" clip-rule="evenodd" fill="#FCC313" points="379.819,433.588 379.891,433.598 379.831,433.574 "/>
</svg>
